<svg xmlns="http://www.w3.org/2000/svg" viewBox="0 0 1080 1080" id="business-growth-using-marketing"><path fill="#2A94F4" d="M227 712.615C227 550.456 358.456 419 520.615 419S814.23 550.456 814.23 712.615" opacity=".05"></path><path fill="#FFBE55" d="M425.659 644.932h27.166v68.202h-27.166z"></path><path fill="#2A94F4" d="M486.875 585.06h27.168v128.075h-27.168z"></path><path fill="#FFBE55" d="M548.094 598.303h27.166v114.831h-27.166z"></path><path fill="#2A94F4" d="M609.311 533.469h27.167v179.666h-27.167z"></path><path fill="#D3D3D3" d="M887 761H172c-13.255 0-24-10.745-24-24s10.745-24 24-24h715c13.255 0 24 10.745 24 24s-10.745 24-24 24z"></path><path fill="#FA968C" d="M485.093 421.591c-.139-2.324-4.159-7.057-3.546-7.65.441-.426 2.006 1.037 2.851 1.892a.358.358 0 0 0 .612-.223c.184-2.283.755-8.673 1.393-8.733.646-.061.969 3.981 1.059 5.338a.086.086 0 0 0 .168.022c.497-1.436 2.173-6.071 2.892-5.476.684.566-.377 5.005-.817 6.713a.086.086 0 0 0 .052.102c.04.016.086 0 .108-.038.865-1.53 3.147-5.409 3.763-4.914.627.505-1.14 4.71-1.795 6.202a.087.087 0 0 0 .033.108.087.087 0 0 0 .112-.016c.988-1.116 3.575-3.96 3.56-3.124-.018 1.033-4.562 9.625-6.05 11.063-1.488 1.441-4.395-1.266-4.395-1.266z"></path><path fill="#FA968C" d="M444.299 450.349c3.08 6.824 7.512 14.575 12.871 19.895 10.427 10.32 23.809 7.624 28.48-16.511.813-3.637 1.38-7.258 1.857-10.872.971-7.22 1.346-14.418 1.679-21.594a1.97 1.97 0 0 0-3.897-.483l-.008.04c-1.413 6.967-2.834 13.92-4.656 20.684-.937 3.37-1.908 6.712-3.039 9.933-.981 3.051-4.922 12.53-7.987 13.458-.101-.017-.201.115-.26.058-.056-.052-.085-.057-.12-.026-.057-.076-.096-.109-.146-.099-.169-.136-.366-.159-.729-.454-.668-.438-1.582-1.302-2.45-2.38-1.779-2.108-3.435-4.894-4.892-7.786-2.528-4.905-3.993-8.432-3.993-8.432-3.112-8.533-16.019-4.447-12.903 4.097.057.155.126.323.193.472z"></path><path fill="#FFBE55" d="M464.985 459.533c-.011-.017-.024-.033-.036-.05a84.092 84.092 0 0 1-4.38-7.18c-1.334-2.409-2.694-5.086-3.646-7.364l-.047-.114a6.88 6.88 0 1 0-12.429 5.868c1.66 3.153 3.267 5.732 5.102 8.446a99.798 99.798 0 0 0 3.925 5.24c1.014-1.082 9.089-3.978 11.511-4.846z"></path><path fill="#FAB9AF" d="M458.248 507.307c-5.985 6.867-40.53 9.733-40.53 9.733-2.549-2.959 1.178-16.408 2.077-30.06.972-14.761 1.532-31.053 1.788-39.856a6.71 6.71 0 0 1 6.714-6.515h21.922a6.48 6.48 0 0 1 6.47 5.946c.575 6.97 1.576 19.084 2.563 30.961 1.001 12.05 4.169 23.855-1.004 29.791z"></path><path fill="#FA968C" d="m438.32 622.066.05 13.587-1.18 6.617a1.898 1.898 0 0 0 1.807 2.241c5.562.171 19.805.546 20.186-.071 1.791-2.897-6.304-4.012-12.226-6.304-5.922-2.292-1.836-24.778-1.836-24.778l-6.801 8.708z"></path><path fill="#0B4870" d="M446.957 638.136c-.032-.012-.059-.033-.09-.047-1.411.527-2.999.837-4.789.837a13.93 13.93 0 0 1-4.182-.615l-.706 3.959a1.898 1.898 0 0 0 1.807 2.241c5.562.171 19.805.546 20.186-.071 1.79-2.896-6.305-4.012-12.226-6.304z"></path><path fill="#0091C8" d="M458.239 512.259c.214 9.444-3.5 69.357-10.837 69.523-7.337.166-15.517-59.477-15.732-68.921-.214-9.444 5.56-17.234 12.896-17.4 7.338-.166 13.459 7.354 13.673 16.798z"></path><path fill="#0B4870" d="M437.269 569.336c-.728 5.198-.846 38.504.324 55.424h6.679c3.587-16.413 7.42-48.222 8.132-53.304.009-.065.013-.128.021-.193 3.991-17.658 5.972-52.041 5.814-59.004-.214-9.444-6.336-16.964-13.672-16.798-7.337.167-13.11 7.957-12.896 17.4.134 5.929 5.943 54.013 5.598 56.475z"></path><path fill="#FA968C" d="m422.29 622.066.05 13.587-1.18 6.617a1.898 1.898 0 0 0 1.807 2.241c5.562.171 19.805.546 20.186-.071 1.791-2.897-6.304-4.012-12.226-6.304-5.922-2.292-1.836-24.778-1.836-24.778l-6.801 8.708z"></path><path fill="#0B4870" d="M430.927 638.136c-.032-.012-.059-.033-.09-.047-1.411.527-2.999.837-4.789.837a13.93 13.93 0 0 1-4.182-.615l-.706 3.959a1.898 1.898 0 0 0 1.807 2.241c5.562.171 19.804.546 20.186-.071 1.791-2.896-6.304-4.012-12.226-6.304z"></path><path fill="#0091C8" d="M442.21 512.259c.214 9.444-3.5 69.357-10.837 69.523-7.337.166-13.93-59.697-14.145-69.141-.214-9.444 3.973-17.014 11.309-17.18 7.337-.166 13.458 7.354 13.673 16.798z"></path><path fill="#0B4870" d="M421.239 569.336c-.728 5.198-.846 38.504.324 55.424h6.679c3.587-16.413 7.42-48.222 8.132-53.304.009-.065.013-.128.021-.193 3.991-17.658 7.559-52.261 7.401-59.224-.214-9.444-7.922-16.744-15.259-16.578-7.337.167-11.524 7.737-11.309 17.18.135 5.929 4.356 54.233 4.011 56.695z"></path><path fill="#FFBE55" d="M450.426 440.61h-3.562c-1.24 2.871-3.864 5.09-7.936 5.09-4.079 0-6.702-2.218-7.94-5.09h-3.251a6.128 6.128 0 0 0-6.139 5.95c-.248 8.656-.811 25.338-1.804 40.42-.899 13.652-4.626 26.338-2.077 30.06 0 0 34.545-2.867 40.53-9.733 5.173-5.936 2.005-17.741 1.003-29.791-.997-11.992-2.008-24.227-2.58-31.163a6.256 6.256 0 0 0-6.244-5.743z"></path><path fill="#0B4870" d="M437.984 432.632a6.227 6.227 0 0 1-7.429-4.727l-1.771-7.962 6.077-1.351 3.123 14.04z"></path><path fill="#FAB9AF" d="M443.413 440.61h-11.462l3.305-11.428 7.813.967z"></path><path fill="#FA968C" d="m443.069 430.149-7.813-.967-1.54 5.326c1.749 1.972 4.343 5.033 7.186 5.033.902 0 1.724-.254 2.463-.723l-.296-8.669z"></path><path fill="#FAB9AF" d="M444.252 436.223c-5.146 1.144-10.246-2.1-11.39-7.246l-2.308-10.38 15.982-3.554s1.802 8.103 1.854 13.831c.038 4.297-1.515 6.765-4.138 7.349z"></path><path fill="#41378C" d="m430.617 422.775 3.004-.668.302 1.362-3.003.668z"></path><path fill="#FAB9AF" d="M435.135 426.411c.45 2.025-.154 3.883-1.35 4.149-1.196.266-3.105-2.096-3.555-4.121-.45-2.025.729-2.948 1.924-3.214 1.196-.266 2.53 1.16 2.981 3.186z"></path><path fill="#0B4870" d="M448.593 419.065a9.2 9.2 0 0 0-.656-4.031c-1.285-3.17-4.835-4.534-8.065-3.41-.33.115-.68.215-1.05.297l-5.394 1.197a6.01 6.01 0 0 0-4.565 7.173l.28 1.257 3.198 1.855 1.303 2.27.211-.047a1.987 1.987 0 0 0 1.532-2.245c-.265-1.695.577-3.35 2.252-3.723l4.787-1.065c2.914-.648 4.777.58 5.262 2.759l.261 1.877.644-4.164z"></path><path fill="#0B4870" d="M432.453 415.28c-.366 2.961 10.276 6.713 13.083 7.06 2.807.347 5.378-1.773 5.744-4.734.366-2.961-1.613-5.643-4.42-5.989-2.806-.347-14.041.702-14.407 3.663z"></path><path fill="#FAB9AF" d="M420.293 451.784c3.53 4.812 9.582 11.14 16.827 16.604 22.16 16.161 45.876 17.795 65.216-.498a1.973 1.973 0 0 0-2.339-3.142l-.089.052c-12.613 7.28-23.906 10.268-38.124 4.295-18.64-8.032-31.864-27.356-30.472-25.513a6.868 6.868 0 0 0-11.019 8.202z"></path><path fill="#FFBE55" d="M441.48 454.678c-4.615-4.142-10.484-12.303-10.484-12.303s-2.782-3.288-8.507-.89c-4.572 1.915-3.646 7.317-3.646 7.317.111.752 1.639 9.663 12.151 17.544 0-.001 11.261-10.973 10.486-11.668zM517.317 356.345c-23.902.028-43.306 19.407-43.306 43.313 0 11.489 5.845 21.409 11.766 30.302 13.082 19.651 5.649 30.297 13.2 30.297h36.725c7.558 0 .103-10.647 13.191-30.297 5.918-8.891 11.749-18.502 11.749-29.987.003-23.911-19.422-43.6-43.325-43.628z"></path><path fill="#0B4870" d="M496.204 415.923a1.35 1.35 0 0 0-1.892-.218 1.35 1.35 0 0 0-.214 1.894c.238.297.509.585.802.867l14.364 43.824a1.351 1.351 0 0 0 1.7.86 1.342 1.342 0 0 0 .856-1.7l-13.266-40.489c3.22 1.57 7.249 2.289 10.535 1.244a8.426 8.426 0 0 0 1.94-.895 10.352 10.352 0 0 0 5.657 1.679c2.467 0 4.797-.79 6.564-2.2.986.527 2.13.963 3.404 1.283 3.767.955 7.098.724 9.872-.631l-13.119 40.011a1.35 1.35 0 0 0 .856 1.698 1.348 1.348 0 0 0 1.707-.858l14.385-43.895c.118-.143.257-.262.374-.412a1.348 1.348 0 0 0-.229-1.89 1.34 1.34 0 0 0-1.887.229c-2.603 3.324-6.407 4.381-11.298 3.142a13.404 13.404 0 0 1-2.181-.757c.813-1.274 1.215-2.723 1.148-4.191-.118-2.926-1.112-5.072-2.726-5.893-.943-.478-1.989-.418-2.862.162-1.416.945-2.109 3.095-1.893 5.894.131 1.7.872 3.21 2.142 4.449-2.204 1.376-5.515 1.524-7.883.254.899-1.269 1.423-2.869 1.526-4.735.146-2.614-.661-4.731-2.156-5.658-.955-.594-2.1-.623-3.067-.069-1.528.862-2.371 2.93-2.328 5.673.029 1.773.717 3.438 1.852 4.811a5.468 5.468 0 0 1-.619.234c-4.02 1.279-9.89-.986-12.064-3.717zm25.99-4.9c.025-.017.038-.028.06-.028.021 0 .046.009.084.028.394.2 1.159 1.211 1.256 3.605.042.907-.213 1.804-.718 2.615-.747-.713-1.299-1.625-1.387-2.773-.159-2.077.332-3.2.705-3.447zm-11.502.24a.27.27 0 0 1 .146-.046c.049 0 .105.019.18.062.378.237.995 1.183.882 3.221-.069 1.281-.385 2.344-.935 3.182-.756-.913-1.214-1.996-1.233-3.128-.035-2.15.588-3.081.96-3.291z"></path><g fill="#0B4870"><path d="M532.568 460.257h-30.516c-1.771 0-3.206 3.262-3.206 5.036 0 1.773 1.436 5.036 3.206 5.036h10.227l-11.201 2.088c-1.681.544-2.605 1.581-2.06 3.266.437 1.357 1.697 1.836 3.053 1.836.325 0 .659-.249.989-.35l30.504-9.992c1.497-.487 2.423-2.324 2.177-3.882-.252-1.56-1.595-3.038-3.173-3.038zM532.531 482.919h-10.198l11.188-5.058c1.682-.543 2.606-3.066 2.059-4.753-.547-1.681-2.353-2.966-4.04-2.42l-30.48 9.714c-1.503.491-2.424 2.646-2.178 4.204.243 1.56 1.591 3.349 3.17 3.349h2.771l4.849 7.555h15.123l4.925-7.555h2.811c1.773 0 3.204-.747 3.204-2.518 0-1.772-1.431-2.518-3.204-2.518z"></path></g><path fill="#FFBE55" d="m428.032 610.599-15.42-18.423 75.125-63.149 65.327 10.888 74.116-57.248 2.99 2.685-70.67 78.673-64.094-13.924z"></path><path fill="#FFBE55" d="m631.229 520.672-42.982-41.217 55.489-14.847z"></path><path fill="#FAB9AF" d="M498.593 465.631c1.515-1.767 1.914-7.965 2.766-7.965.613 0 .722 2.14.735 3.342a.359.359 0 0 0 .596.265c1.719-1.514 6.57-5.712 7.07-5.312.507.405-2.07 3.536-2.948 4.575a.087.087 0 0 0-.002.11c.026.032.07.042.107.024 1.356-.687 5.782-2.855 5.885-1.927.098.882-3.75 3.337-5.253 4.259a.086.086 0 0 0-.034.109c.018.04.062.06.104.048 1.685-.499 6.022-1.703 6.12-.918.1.799-4.093 2.594-5.6 3.212a.087.087 0 0 0-.052.1c.01.042.049.07.091.066 1.486-.116 5.322-.363 4.731.228-.731.731-9.969 3.751-12.038 3.751-2.068 0-2.278-3.967-2.278-3.967z"></path><path fill="#0B4870" d="M653.099 643.61c9.144 9.144 23.956 9.131 33.101 0 9.144-9.144 9.144-23.956 0-33.101-9.144-9.144-23.956-9.158-33.101 0-9.144 9.131-9.144 23.956 0 33.101zm3.696-29.405c7.105-7.105 18.604-7.105 25.708 0 7.105 7.091 7.105 18.604 0 25.708-7.091 7.105-18.604 7.105-25.708 0-7.105-7.104-7.105-18.617 0-25.708z"></path><path fill="#FFF" d="M655.207 633.001a15.62 15.62 0 0 1 4.586-11.841c6.133-6.147 16.057-6.147 22.19 0a15.643 15.643 0 0 1 3.573 5.503c-.192-3.751-1.711-7.461-4.586-10.322-6.133-6.133-16.057-6.133-22.19 0a15.656 15.656 0 0 0-3.573 16.66z" opacity=".25"></path><path fill="#0B4870" d="M709.822 667.081a3.032 3.032 0 0 0 0-4.286l-22.292-22.292-4.286 4.286 22.292 22.292a3.032 3.032 0 0 0 4.286 0z"></path><path fill="#FFBE55" d="M713.562 670.82a4.211 4.211 0 0 0 0-5.956l-20.621-20.621a1.182 1.182 0 0 0-1.671 0l-4.286 4.286a1.182 1.182 0 0 0 0 1.671l20.621 20.621a4.213 4.213 0 0 0 5.957-.001z"></path><circle cx="372.943" cy="650.635" r="22.824" fill="#FFBE55" transform="rotate(-3.624 373.168 650.449)"></circle><path fill="#FFF" d="m382.69 640.018-3.923-1.463a1.267 1.267 0 0 0-1.629.744l-5.331 14.293a1.267 1.267 0 0 1-1.593.757l-6.122-2.074a1.267 1.267 0 0 0-1.606.793l-1.344 3.966a1.268 1.268 0 0 0 .793 1.606l12.296 4.166a1.267 1.267 0 0 0 1.593-.757l7.609-20.401a1.267 1.267 0 0 0-.743-1.63z"></path><ellipse cx="249" cy="786" fill="#D3D3D3" rx="69" ry="2"></ellipse><ellipse cx="351" cy="808" fill="#D3D3D3" rx="69" ry="2"></ellipse><ellipse cx="477" cy="786" fill="#D3D3D3" rx="69" ry="2"></ellipse><ellipse cx="579" cy="808" fill="#D3D3D3" rx="69" ry="2"></ellipse><ellipse cx="699" cy="786" fill="#D3D3D3" rx="69" ry="2"></ellipse><ellipse cx="801" cy="808" fill="#D3D3D3" rx="69" ry="2"></ellipse><path fill="#2A94F4" d="M762.398 490.853c5.065 11.558-.198 25.033-11.755 30.098-11.558 5.065-25.033-.198-30.098-11.755-5.065-11.558.198-25.033 11.756-30.098 11.557-5.066 25.032.197 30.097 11.755z" opacity=".4"></path><path fill="#FFF" d="m727.363 491.973 17.752-7.78a3.357 3.357 0 0 1 4.409 1.722l7.78 17.752a3.356 3.356 0 0 1-1.722 4.408l-17.752 7.78a3.356 3.356 0 0 1-4.409-1.721l-7.78-17.752a3.357 3.357 0 0 1 1.722-4.409zm15.495-3.629c-.592.26-.863.956-.604 1.548l1.127 2.573c.259.592.955.864 1.547.605l2.699-1.183c.591-.259.863-.955.604-1.547l-1.127-2.573a1.178 1.178 0 0 0-1.547-.605l-2.699 1.182zm7.048 5.788-2.101.921a7.619 7.619 0 0 1 1.206 1.916c1.74 3.971-.173 8.649-4.273 10.446-4.099 1.796-8.836.033-10.577-3.938a7.657 7.657 0 0 1-.591-2.186l-2.193.961 4.422 10.089c.229.523.842.76 1.365.531l16.631-7.289c.523-.229.762-.84.533-1.363l-4.422-10.088zm-10.47 1.183c-2.649 1.161-3.885 4.182-2.759 6.75 1.124 2.565 4.184 3.706 6.833 2.545s3.884-4.184 2.76-6.749c-1.127-2.568-4.186-3.707-6.834-2.546z"></path><circle cx="286.799" cy="538.782" r="23.57" fill="#2A94F4" opacity=".4"></circle><path fill="#FFF" d="m280 526.997 17.454 11.785L280 550.568z"></path><g fill="#2A94F4"><path d="M244.38 628.866v-17.772c-1.808.039-3.368.309-5.131.882a17.992 17.992 0 0 0-10.543 9.005 17.995 17.995 0 0 0-1.227 13.377l16.901-5.492z" opacity=".4"></path><path d="m252.886 632.308-8.04-2.612-17.081 5.55c1.926 5.508 5.889 9.371 11.482 11.189a18.1 18.1 0 0 0 5.602.892 18.067 18.067 0 0 0 17.076-12.081l-9.039-2.938z"></path><path d="m255.87 614.827-10.268 14.132 16.613 5.398c2.185-7.318-.276-14.893-6.345-19.53z" opacity=".1"></path><path d="m245.314 627.768 9.801-13.49c-3.006-2.086-6.143-3.105-9.801-3.185v16.675z" opacity=".62"></path></g><circle cx="337.626" cy="440.682" r="27.103" fill="#2A94F4" opacity=".62"></circle><path fill="#FFF" d="m344.6 437.614-2.983-5.579-5.06 3.607-2.326-3.263c-1.054-1.479-1.36-2.782.761-4.293l2.703-1.928-3.257-4.57c-.511.271-2.215 1.275-4.085 2.608-3.902 2.781-4.873 7.065-1.756 11.437l2.686 3.768-4.412 3.145 3.642 5.11 4.412-3.145 9.344 13.109 5.275-3.76-9.344-13.109 4.4-3.137z"></path><path fill="#2A94F4" d="M684.477 411.927c0 14.122-11.449 25.571-25.571 25.571-14.123 0-25.572-11.448-25.572-25.571 0-14.123 11.449-25.572 25.572-25.572s25.571 11.449 25.571 25.572z" opacity=".62"></path><g fill="#FFF"><path d="M665.668 424.786a3.264 3.264 0 0 1-1.27 1.039l-1.32-12.423 10.891-1.042a3.267 3.267 0 0 1-.604 1.723l-7.697 10.703zM658.728 412.373l15.506-1.483a3.326 3.326 0 0 0-1.056-1.282l-16.425-11.811a3.317 3.317 0 0 0-1.553-.593l3.528 15.169z"></path><path d="m661.745 413.779-3.59.345a.847.847 0 0 1-.901-.648l-.816-3.513-12.635 2.802a3.327 3.327 0 0 0 1.14 1.458l16.425 11.811a3.333 3.333 0 0 0 1.745.617l-1.368-12.872zM653.519 397.418a3.354 3.354 0 0 0-1.472 1.149l-7.873 10.949a3.316 3.316 0 0 0-.596 1.568l12.476-2.765-2.535-10.901z"></path></g><path fill="#2A94F4" d="M772.165 638.718s5.089 5.421 9.665 9.913c4.576 4.493 10.711 8.385 10.711 8.385s2.193-.799 5.881-2.898c3.689-2.099 4.002-2.985 4.002-2.985s-1.523-4.535-4.456-4.439c-.599-1.785-1.691-4.003-3.992-3.88-.372-2.01-2.266-5.968-5.264-6.346-.055-2.278-1.397-4.091-1.397-4.091l-15.15 6.341z"></path><path fill="#2A94F4" d="m792.126 631.187 3.147 5.703s-.613.808-1.63 1.141c-1.017.332-3.529-2.141-4.266-3.408-.737-1.267-1.455-2.952-1.455-2.952l4.204-.484zM755.791 627.241s-.047.894.377 2.581a5.46 5.46 0 0 0 4.549 9.232c1.08 1.363 1.817 1.871 1.817 1.871l5.003-1.093-3.916-7.946-3.916-7.946-3.914 3.301z"></path><path fill="#CCE9FF" d="M787.764 599.975c-4.747 9.531-15.488 15.69-20.474 18.407-4.986 2.717-6.516 2.951-7.498 4.475-.982 1.523 3.004 9.436 3.004 9.436s3.847 7.981 5.653 8.131c1.807.149 2.925-.922 8.117-3.22 5.192-2.299 16.62-7.064 27.069-5.022 10.45 2.042 15.829 3.463 15.829 3.463l-12.402-25.166-12.401-25.166s-2.15 5.131-6.897 14.662z"></path><path fill="#2A94F4" d="M823.664 628.918c.832 2.964.192 5.211-2.165 6.373-2.357 1.161-4.558.384-6.373-2.166 0 0-2.415-2.068-11.679-20.866s-9.432-21.973-9.432-21.973c-.388-3.08-.192-5.211 2.165-6.372 2.358-1.162 4.203-.396 6.373 2.165 0 0 3.155 3.57 11.678 20.866 8.525 17.296 9.433 21.973 9.433 21.973z"></path><path fill="#FFF" d="M813.408 607.351c6.268 12.719 9.065 24.156 9.065 24.156s-7.366-9.185-13.633-21.904c-6.268-12.719-9.065-24.155-9.065-24.155s7.366 9.184 13.633 21.903z"></path><path fill="#2A94F4" d="M818.19 583.179a1.36 1.36 0 0 1-1.079-2.186l16.405-21.459a1.36 1.36 0 1 1 2.161 1.652l-16.405 21.459a1.357 1.357 0 0 1-1.082.534zM824.38 590.7a1.361 1.361 0 0 1-.803-2.459l17.706-12.927a1.36 1.36 0 1 1 1.604 2.198l-17.706 12.927a1.358 1.358 0 0 1-.801.261zM828.897 601.346a1.36 1.36 0 0 1-.425-2.653l30.358-9.986a1.359 1.359 0 1 1 .85 2.584l-30.358 9.986a1.34 1.34 0 0 1-.425.069zM833.965 614.656a1.361 1.361 0 0 1-.143-2.713l23.113-2.466a1.373 1.373 0 0 1 1.497 1.208 1.36 1.36 0 0 1-1.208 1.497l-23.113 2.466a1.202 1.202 0 0 1-.146.008z"></path></svg>